<svg height='100px' width='100px'  fill="#f8f8f8" xmlns:rdf="http://www.w3.org/1999/02/22-rdf-syntax-ns#" xmlns="http://www.w3.org/2000/svg" xmlns:cc="http://creativecommons.org/ns#" xmlns:dc="http://purl.org/dc/elements/1.1/" version="1.1" x="0px" y="0px" viewBox="0 0 100 100"><g transform="translate(0,-952.36218)"><path style="baseline-shift:baseline;block-progression:tb;color:#000000;direction:ltr;text-indent:0;enable-background:accumulate;text-transform:none;" fill="#f8f8f8" d="m30.117,956.87a1.2501,1.2501,0,0,0,-1,0.84375c-4.8214,14.703-9.2122,36.46,0.4375,53,4.269,7.3173,9.8309,13.081,15.656,16.719,5.8254,3.6374,11.973,5.1747,17.344,3.7812a1.2582,1.2582,0,1,0,-0.625,-2.4375c-4.4772,1.1615-9.9833-0.083-15.406-3.4687-5.4229-3.3861-10.732-8.8817-14.812-15.875-8.5744-14.697-5.2368-34.396-0.8125-48.719,6.4914,8.0299,14.078,13.071,20.812,17.031,7.2752,4.2777,13.442,7.5276,16.281,12.094,2.9099,4.6791,4.4701,12.187,4.3438,19.281-0.1127,6.3296-1.6257,12.303-4.1875,15.656-3.4241-6.437-7.0505-10.852-10.5-14.594a1.2562,1.2562,0,0,0,0.09375,-0.375c0.33667-3.4826-0.22661-6.5094-0.625-9.1563-0.39839-2.647-0.63013-4.8833,0.09375-6.9063a1.2501,1.2501,0,0,0,-1.125,-1.6875,1.2501,1.2501,0,0,0,-1.2188,0.875c-0.96561,2.6986-0.65723,5.3569-0.25,8.0626,0.32379,2.1512,0.72112,4.3624,0.71875,6.7187-5.6066-5.9066-10.404-10.893-13.031-22.156a1.2501,1.2501,0,0,0,-1.4062,-0.9687,1.2501,1.2501,0,0,0,-1.0312,1.5312c0.71812,3.0791,1.6057,5.747,2.625,8.0938-1.5937-0.3508-3.0472-0.9562-4.5-1.5-1.887-0.7063-3.8224-1.3865-6-1.0938a1.2501,1.2501,0,1,0,0.34375,2.4688c1.4682-0.1974,2.9497,0.2519,4.7812,0.9375,1.8316,0.6855,3.9581,1.5794,6.5625,1.875a1.2501,1.2501,0,0,0,0.125,0.031c3.2041,6.0471,7.3644,9.9773,11.625,14.562,6.3599,6.8445,13.124,15.304,18.281,35.438a1.2582,1.2582,0,1,0,2.4375,-0.625c-2.0244-7.9033-4.3366-14.082-6.7812-19.125,3.7062-3.9692,5.3411-10.828,5.4688-18,0.13319-7.48-1.4-15.32-4.7188-20.656-3.3889-5.4492-9.9526-8.7019-17.156-12.938-7.2037-4.2356-15.124-9.3949-21.625-18.219a1.2501,1.2501,0,0,0,-1.2188,-0.5z"></path></g></svg>